<svg width="24" height="24" viewBox="0 0 24 24" fill="none" xmlns="http://www.w3.org/2000/svg">
<path d="M20.17 9.22991L6.17001 3.44991C5.64029 3.23069 5.05884 3.16785 4.49451 3.26882C3.93018 3.36979 3.4066 3.63034 2.98575 4.01963C2.5649 4.40891 2.2644 4.91064 2.11983 5.4654C1.97526 6.02016 1.99268 6.60473 2.17001 7.14991L3.71001 11.9999L2.13001 16.8499C1.94788 17.3973 1.92742 17.9855 2.07108 18.5442C2.21475 19.1029 2.51644 19.6083 2.94001 19.9999C3.48465 20.505 4.19729 20.79 4.94001 20.7999C5.33474 20.7996 5.72554 20.7215 6.09001 20.5699L20.14 14.7899C20.6872 14.5623 21.1547 14.1778 21.4836 13.6848C21.8125 13.1919 21.988 12.6125 21.988 12.0199C21.988 11.4273 21.8125 10.848 21.4836 10.355C21.1547 9.862 20.6872 9.47747 20.14 9.24991L20.17 9.22991ZM5.36001 18.6999C5.18361 18.7727 4.99007 18.7934 4.80225 18.7598C4.61442 18.7261 4.44015 18.6394 4.30001 18.5099C4.168 18.3838 4.07304 18.2239 4.02545 18.0476C3.97785 17.8713 3.97943 17.6854 4.03001 17.5099L5.49001 12.9999H19.22L5.36001 18.6999ZM5.49001 10.9999L4.00001 6.52991C3.94943 6.35446 3.94785 6.16851 3.99545 5.99222C4.04304 5.81594 4.138 5.65606 4.27001 5.52991C4.36412 5.43118 4.47742 5.35275 4.60296 5.29944C4.7285 5.24613 4.86362 5.21906 5.00001 5.21991C5.13406 5.22016 5.26669 5.24737 5.39001 5.29991L19.22 10.9999H5.49001Z" fill="white"/>
</svg>
